<svg width="40" height="40" viewBox="0 0 40 40" fill="none" xmlns="http://www.w3.org/2000/svg">
<path d="M29.7038 0H10.2962C4.60815 0 0 4.60815 0 10.2962V29.7038C0 35.3918 4.60815 40 10.2962 40H29.7038C35.3918 40 40 35.3918 40 29.7038V10.2962C40.0044 4.61252 35.3918 0 29.7038 0ZM14.2223 23.9545L7.59427 16.7406L14.2223 9.52673H16.592L10.4842 16.7406L16.6969 23.9502H14.2223V23.9545ZM11.3368 16.7363L17.4402 9.52235H21.2395L14.5808 16.7363L21.2395 23.9502H17.5538L11.3368 16.7363ZM19.7836 30.6919L26.4422 23.478L19.7836 16.2641H23.4692L29.6863 23.478L23.5829 30.6919H19.7836ZM26.8007 30.6919H24.4311L30.5389 23.478L24.3262 16.2684H26.8007L33.4288 23.4823L26.8007 30.6919Z" fill="url(#paint0_linear_148_4779)"/>
<defs>
<linearGradient id="paint0_linear_148_4779" x1="7.27273" y1="6.54545" x2="30.3636" y2="37.4545" gradientUnits="userSpaceOnUse">
<stop stop-color="#00C2FF"/>
<stop offset="1" stop-color="#FF00E5"/>
</linearGradient>
</defs>
</svg>
