<svg width="22" height="17" viewBox="0 0 22 17" fill="none" xmlns="http://www.w3.org/2000/svg">
<path d="M20.75 0.25H1.25C0.835156 0.25 0.5 0.585156 0.5 1V16C0.5 16.4148 0.835156 16.75 1.25 16.75H20.75C21.1648 16.75 21.5 16.4148 21.5 16V1C21.5 0.585156 21.1648 0.25 20.75 0.25ZM6.92188 3.625C7.74922 3.625 8.42188 4.29766 8.42188 5.125C8.42188 5.95234 7.74922 6.625 6.92188 6.625C6.09453 6.625 5.42188 5.95234 5.42188 5.125C5.42188 4.29766 6.09453 3.625 6.92188 3.625ZM18.9664 13.8695C18.9323 13.8982 18.8891 13.914 18.8445 13.9141H3.15312C3.05 13.9141 2.96562 13.8297 2.96562 13.7266C2.96562 13.682 2.98203 13.6398 3.01016 13.6047L7.00156 8.87031C7.06719 8.79062 7.18672 8.78125 7.26641 8.84687C7.27344 8.85391 7.28281 8.86094 7.28984 8.87031L9.61953 11.6359L13.325 7.24141C13.3906 7.16172 13.5102 7.15234 13.5898 7.21797C13.5969 7.225 13.6062 7.23203 13.6133 7.24141L18.9945 13.607C19.0555 13.6844 19.0461 13.8039 18.9664 13.8695Z" fill="white"/>
</svg>
